<svg id="Capa_1" enable-background="new 0 0 512 512" height="512" viewBox="0 0 512 512" width="512" xmlns="http://www.w3.org/2000/svg"><g><g><path d="m361.106 470.374h-156.098l20.813-72.846h114.472z" fill="#365e7d"/><path d="m491.187 397.528h-416.26c-11.495 0-20.813-9.318-20.813-20.813v-312.195c0-11.495 9.318-20.813 20.813-20.813h416.26c11.495 0 20.813 9.318 20.813 20.813v312.195c0 11.495-9.318 20.813-20.813 20.813z" fill="#4a80aa"/><path d="m74.927 43.707c-11.495 0-20.813 9.318-20.813 20.813v253.919h299.707c25.248 0 45.789-20.541 45.789-45.789v-228.943z" fill="#407093"/><path d="m491.187 43.707h-33.301c11.495 0 20.813 9.318 20.813 20.813v312.195c0 11.495-9.318 20.813-20.813 20.813h33.301c11.495 0 20.813-9.318 20.813-20.813v-312.195c0-11.494-9.318-20.813-20.813-20.813z" fill="#407093"/><path d="m87.415 322.706v-235.396c0-5.69 4.612-10.302 10.302-10.302h370.681c5.69 0 10.302 4.612 10.302 10.302v235.396c0 5.69-4.612 10.302-10.302 10.302h-370.682c-5.689 0-10.301-4.612-10.301-10.302z" fill="#80b4fb"/><path d="m87.415 77.008v241.431h266.406c25.248 0 45.789-20.541 45.789-45.789v-195.642z" fill="#61a2f9"/><path d="m391.347 512h-216.581c-3.414 0-6.181-2.767-6.181-6.181v-14.632c0-11.495 9.318-20.813 20.813-20.813h187.317c11.495 0 20.813 9.318 20.813 20.813v14.632c0 3.414-2.767 6.181-6.181 6.181z" fill="#4a80aa"/><path d="m376.715 470.374h-28.098c11.495 0 20.813 9.318 20.813 20.813v20.813h21.916c3.414 0 6.181-2.767 6.181-6.181v-14.632c.001-11.495-9.317-20.813-20.812-20.813z" fill="#407093"/></g><g><path d="m0 272.65v-208.13h374.634v208.13c0 11.495-9.318 20.813-20.813 20.813h-333.008c-11.495 0-20.813-9.318-20.813-20.813z" fill="#e4f6ff"/><path d="m25.574 120.82v-12.697c0-5.69 4.612-10.302 10.302-10.302h91.188c5.69 0 10.302 4.612 10.302 10.302v12.697c0 5.69-4.612 10.302-10.302 10.302h-91.188c-5.689 0-10.302-4.612-10.302-10.302z" fill="#e278b1"/><g><path d="m147.773 171.778h-114.472c-4.268 0-7.726-3.459-7.726-7.726s3.459-7.726 7.726-7.726h114.472c4.268 0 7.726 3.459 7.726 7.726 0 4.266-3.459 7.726-7.726 7.726z" fill="#93d8e4"/></g><g><path d="m178.992 205.078h-145.691c-4.268 0-7.726-3.459-7.726-7.726s3.459-7.726 7.726-7.726h145.691c4.268 0 7.726 3.459 7.726 7.726s-3.458 7.726-7.726 7.726z" fill="#93d8e4"/></g><g><path d="m178.992 238.082h-145.691c-4.268 0-7.726-3.459-7.726-7.726s3.459-7.726 7.726-7.726h145.691c4.268 0 7.726 3.459 7.726 7.726s-3.458 7.726-7.726 7.726z" fill="#93d8e4"/></g><path d="m350.699 64.52v208.13c0 11.495-9.318 20.813-20.813 20.813h23.935c11.495 0 20.813-9.318 20.813-20.813v-208.13z" fill="#b9e4ef"/><path d="m0 64.52v-43.707c0-11.495 9.318-20.813 20.813-20.813h333.008c11.495 0 20.813 9.318 20.813 20.813v43.707z" fill="#80b4fb"/><path d="m353.821 0h-23.935c11.495 0 20.813 9.318 20.813 20.813v43.707h23.935v-43.707c0-11.495-9.318-20.813-20.813-20.813z" fill="#61a2f9"/><circle cx="333.008" cy="32.26" fill="#a2f4c1" r="8.325"/><circle cx="299.707" cy="32.26" fill="#ffe07d" r="8.325"/><circle cx="266.406" cy="32.26" fill="#e278b1" r="8.325"/><g><path d="m334.003 100.02-138.058 41.418c-5.605 1.681-5.952 9.486-.519 11.659l62.278 24.911c1.571.628 2.815 1.873 3.443 3.443l24.911 62.278c2.173 5.433 9.978 5.085 11.659-.519l41.418-138.058c.942-3.144-1.988-6.075-5.132-5.132z" fill="#ffe07d"/><path d="m260.163 178.992-33.57-13.428-8.159 48.027c-.713 4.197 2.932 7.842 7.129 7.129l48.027-8.159z" fill="#ffc250"/><path d="m339.134 105.151c.943-3.143-1.988-6.074-5.131-5.131l-8.281 2.484-73.365 73.365 5.346 2.138c1.571.628 2.815 1.873 3.443 3.443l2.138 5.345 73.366-73.366z" fill="#ffd064"/></g></g></g></svg>